<svg xmlns="http://www.w3.org/2000/svg" width="64" height="64" viewBox="0 0 64 64"><path fill="#07D7F0" d="M33 0c2.66-.344 2.66-.344 6 0 2.113 1.804 3.695 3.39 5.438 5.5l1.43 1.654a358.51 358.51 0 0 1 2.822 3.307c1.757 2.064 3.602 4.043 5.435 6.039 2.244 2.448 3.378 4.188 3.875 7.5-.438 2.75-.438 2.75-1 5l1.531 1.137 1.969 1.55 1.969 1.512C64 35 64 35 64.219 37.707L64 40a1292.93 1292.93 0 0 1-6.813 3.5l-1.947 1.012C52.305 46.002 50.34 47 47 47l-.309 2.105c-.808 3.386-2.158 6.118-3.754 9.208l-1.66 3.238L40 64c-2.316.223-2.316.223-5 0-1.59-1.566-1.59-1.566-2.938-3.563-1.444-1.95-1.444-1.95-3.062-3.437-3.07.164-3.07.164-6 1-4.523-2.15-7.914-5.522-11.5-8.938a1585.134 1585.134 0 0 0-3.344-3.152L6.55 44.394c-1.412-1.27-2.921-2.427-4.437-3.57C0 39 0 39-.312 35.75L0 33c7.955-3.978 22.296-2.12 31-2l-.035-2.535C30.779 4.443 30.779 4.443 33 0Z"/><path fill="#0065FE" d="M33 0c2.66-.344 2.66-.344 6 0 2.113 1.804 3.695 3.39 5.438 5.5l1.43 1.654a358.51 358.51 0 0 1 2.822 3.307c1.757 2.064 3.602 4.043 5.435 6.039 2.223 2.425 3.498 4.182 3.875 7.5-1.23 2.768-2.561 5.34-4 8-1.265 2.492-2.507 4.997-3.75 7.5l-1.86 3.719L47 46c-3.826-1.575-6.245-4.01-9.125-6.938l-2.633-2.652c-5.208-5.598-4.532-10.043-4.317-17.383C31.52 2.958 31.52 2.958 33 0Z"/><path fill="#0069FE" d="M55 29c3.909 1.303 6.46 2.708 9 6 .105 2.637.105 2.637 0 5a1292.93 1292.93 0 0 1-6.813 3.5l-1.947 1.012C52.305 46.002 50.34 47 47 47l-.309 2.105c-.808 3.386-2.158 6.118-3.754 9.208l-1.66 3.238L40 64c-2.686.553-4.364.409-6.69-1.086-2.93-2.776-4.21-4.863-4.598-8.93.146-3.507.483-6.937.913-10.422l.371-3.662c.305-2.97.64-5.935 1.004-8.9a644.281 644.281 0 0 1 7.387 7.457l2.3 2.355 2.325 2.395c1.79 2.016 1.79 2.016 3.988 1.793l1.242-2.738 1.633-3.575 1.617-3.55C53 32 53 32 55 29Z"/><path fill="#004DFE" d="M53 30c-.546 4.28-1.553 7.562-3.563 11.375l-1.378 2.648L47 46c-3.829-1.58-6.288-4.02-9.188-6.938l-2.667-2.652C33 34 33 34 32 31c7.018-1.1 13.906-1.097 21-1Z"/><path fill="#00C1FE" d="m31 31 15 15c-2.653 3.266-5.804 4.265-9.688 5.688l-3.574 1.324L30 54c-.137-7.728.248-15.309 1-23Z"/><path fill="#06CDFD" d="M55 29c3.909 1.303 6.46 2.708 9 6 .105 2.637.105 2.637 0 5-2.29 1.172-4.581 2.337-6.875 3.5l-1.973 1.012C50.227 47 50.227 47 48 47c.403-6.186 2.488-13.488 7-18Z"/></svg>